<svg xmlns="http://www.w3.org/2000/svg" xmlns:xlink="http://www.w3.org/1999/xlink" viewBox="0 0 195 25">
  <g transform="translate(0 -0.28)">
    <!-- Background Layer -->
    <path d="M 0 25.563 L 0 0 L 195 0 L 195 25.563 Z" fill="transparent"/>

    <!-- Typography: Alicino -->
    <path d="M 125.74 22.082 C 124.148 22.082 122.739 21.767 121.562 21.154 C 120.368 20.54 119.44 19.695 118.794 18.601 C 118.13 17.523 117.815 16.28 117.815 14.887 C 117.815 13.843 117.965 12.848 118.263 11.936 C 118.561 11.024 118.992 10.179 119.556 9.4 C 120.12 8.637 120.783 7.974 121.579 7.41 C 122.374 6.847 123.253 6.416 124.214 6.101 C 125.193 5.786 126.237 5.637 127.364 5.637 C 128.823 5.637 130.099 5.869 131.194 6.333 C 132.288 6.797 133.183 7.427 133.829 8.223 C 134.492 9.018 134.857 9.93 134.94 10.975 L 132.022 10.975 C 131.906 10.411 131.658 9.897 131.276 9.45 C 130.895 9.002 130.381 8.637 129.718 8.355 C 129.055 8.074 128.226 7.941 127.231 7.941 C 126.436 7.941 125.723 8.04 125.06 8.256 C 124.397 8.471 123.8 8.786 123.27 9.201 C 122.739 9.615 122.275 10.096 121.91 10.66 C 121.529 11.223 121.247 11.853 121.048 12.55 C 120.849 13.262 120.75 14.008 120.75 14.788 C 120.75 15.733 120.949 16.595 121.363 17.341 C 121.761 18.087 122.358 18.683 123.12 19.115 C 123.883 19.546 124.811 19.761 125.889 19.761 C 127.198 19.761 128.292 19.479 129.138 18.899 C 129.983 18.319 130.63 17.622 131.077 16.827 L 134.078 16.827 C 133.73 17.855 133.166 18.766 132.387 19.562 C 131.591 20.358 130.646 20.971 129.552 21.419 C 128.442 21.866 127.198 22.082 125.773 22.082 Z" fill="rgb(48,26,18)"/>
    <path d="M 136.382 21.651 L 140.212 0 L 143.096 0 L 139.267 21.651 Z" fill="rgb(48,26,18)"/>
    <path d="M 143.51 21.651 L 146.262 6.068 L 149.146 6.068 L 146.395 21.651 Z M 146.594 3.216 L 147.174 0 L 150.357 0 L 149.776 3.216 Z" fill="rgb(48,26,18)"/>
    <path d="M 150.457 21.651 L 153.208 6.068 L 156.093 6.068 L 155.396 10.129 L 155.181 9.798 C 155.728 8.82 156.375 8.04 157.121 7.427 C 157.867 6.814 158.695 6.366 159.59 6.084 C 160.486 5.786 161.431 5.637 162.425 5.637 C 163.536 5.637 164.498 5.819 165.293 6.184 C 166.089 6.548 166.719 7.046 167.183 7.692 C 167.647 8.322 167.946 9.068 168.095 9.914 C 168.244 10.759 168.227 11.654 168.062 12.599 L 166.487 21.668 L 163.569 21.668 L 165.144 12.815 C 165.31 11.92 165.293 11.124 165.111 10.394 C 164.929 9.665 164.531 9.085 163.901 8.654 C 163.271 8.223 162.409 8.007 161.298 8.007 C 160.187 8.007 159.226 8.239 158.314 8.72 C 157.386 9.201 156.623 9.831 156.01 10.627 C 155.396 11.422 154.999 12.334 154.816 13.345 L 153.324 21.684 L 150.44 21.684 Z" fill="rgb(48,26,18)"/>
    <path d="M 170.382 21.651 L 173.134 6.068 L 176.019 6.068 L 173.267 21.651 Z M 173.466 3.216 L 174.046 0 L 177.229 0 L 176.649 3.216 Z" fill="rgb(48,26,18)"/>
    <path d="M 185.816 22.082 C 184.225 22.082 182.816 21.767 181.639 21.154 C 180.445 20.54 179.517 19.695 178.87 18.601 C 178.207 17.523 177.892 16.28 177.892 14.887 C 177.892 13.843 178.042 12.848 178.34 11.936 C 178.638 11.024 179.069 10.179 179.633 9.4 C 180.196 8.637 180.86 7.974 181.655 7.41 C 182.451 6.847 183.33 6.416 184.291 6.101 C 185.269 5.786 186.314 5.637 187.441 5.637 C 188.9 5.637 190.176 5.869 191.27 6.333 C 192.364 6.797 193.26 7.427 193.906 8.223 C 194.569 9.018 194.934 9.93 195.017 10.975 L 192.099 10.975 C 191.983 10.411 191.734 9.897 191.353 9.45 C 190.972 9.002 190.458 8.637 189.795 8.355 C 189.132 8.074 188.303 7.941 187.308 7.941 C 186.513 7.941 185.8 8.04 185.137 8.256 C 184.474 8.471 183.877 8.786 183.346 9.201 C 182.816 9.615 182.352 10.096 181.987 10.66 C 181.606 11.223 181.324 11.853 181.125 12.55 C 180.926 13.262 180.826 14.008 180.826 14.788 C 180.826 15.733 181.025 16.595 181.44 17.341 C 181.838 18.087 182.434 18.683 183.197 19.115 C 183.96 19.546 184.888 19.761 185.966 19.761 C 187.275 19.761 188.369 19.479 189.215 18.899 C 190.06 18.319 190.707 17.622 191.154 16.827 L 194.155 16.827 C 193.807 17.855 193.243 18.766 192.464 19.562 C 191.668 20.358 190.723 20.971 189.629 21.419 C 188.518 21.866 187.275 22.082 185.849 22.082 Z" fill="rgb(48,26,18)"/>
    <path d="M 40.084 22.082 C 38.509 22.082 37.25 21.701 36.288 20.921 C 35.343 20.159 34.863 19.147 34.863 17.888 C 34.863 16.893 35.095 16.047 35.575 15.351 C 36.056 14.655 36.769 14.075 37.714 13.594 C 38.659 13.113 39.836 12.798 41.228 12.632 L 46.235 12.019 C 46.881 11.919 47.345 11.754 47.644 11.522 C 47.942 11.289 48.091 10.958 48.091 10.543 L 48.091 10.51 C 48.091 10.146 47.975 9.847 47.76 9.615 C 47.544 9.383 47.213 9.201 46.782 9.068 C 46.351 8.935 45.82 8.869 45.19 8.869 C 44.279 8.869 43.533 9.002 42.952 9.284 C 42.372 9.549 41.974 9.963 41.775 10.477 L 36.918 10.477 C 37.2 9.449 37.714 8.571 38.476 7.858 C 39.239 7.145 40.217 6.581 41.411 6.183 C 42.604 5.786 43.98 5.587 45.538 5.587 C 47.312 5.587 48.787 5.835 49.931 6.349 C 51.092 6.863 51.904 7.576 52.368 8.538 C 52.849 9.482 52.965 10.643 52.716 12.019 L 50.992 21.634 L 46.317 21.634 L 47.014 17.606 L 47.461 18.037 C 46.931 18.932 46.317 19.678 45.588 20.291 C 44.875 20.905 44.063 21.352 43.168 21.634 C 42.273 21.916 41.245 22.065 40.084 22.065 Z M 42.14 18.683 C 42.77 18.683 43.367 18.584 43.964 18.385 C 44.544 18.186 45.074 17.904 45.555 17.539 C 46.036 17.175 46.433 16.744 46.765 16.263 C 47.097 15.782 47.312 15.268 47.412 14.754 L 47.71 13.113 L 48.075 13.959 C 47.826 14.124 47.511 14.257 47.113 14.373 C 46.715 14.489 46.201 14.589 45.555 14.688 L 42.074 15.202 C 41.394 15.318 40.847 15.55 40.466 15.882 C 40.084 16.213 39.885 16.628 39.885 17.142 C 39.885 17.655 40.084 18.004 40.466 18.285 C 40.847 18.551 41.411 18.7 42.14 18.7 Z" fill="rgb(48,26,18)"/>
    <path d="M 54.059 21.651 L 57.872 0 L 62.779 0 L 58.949 21.651 L 54.042 21.651 Z" fill="rgb(48,26,18)"/>
    <path d="M 65.182 6.068 L 62.397 21.651 L 67.371 21.651 L 70.122 6.068 Z" fill="rgb(48,26,18)"/>
    <path d="M 71.217 0 L 70.521 3.912 L 65.515 3.912 L 66.227 0 Z" fill="rgb(242,99,36)"/>
    <path d="M 79.771 22.115 C 78.08 22.115 76.588 21.8 75.295 21.17 C 74.018 20.54 73.024 19.678 72.327 18.584 C 71.631 17.49 71.283 16.23 71.283 14.787 C 71.283 13.71 71.449 12.715 71.78 11.77 C 72.112 10.825 72.576 9.98 73.173 9.234 C 73.77 8.488 74.482 7.841 75.328 7.294 C 76.173 6.747 77.102 6.333 78.113 6.034 C 79.141 5.736 80.235 5.587 81.428 5.587 C 83.103 5.587 84.578 5.885 85.855 6.482 C 87.131 7.079 88.126 7.924 88.855 9.002 C 89.584 10.079 89.949 11.389 89.949 12.931 C 89.949 14.025 89.783 15.036 89.468 15.964 C 89.137 16.893 88.689 17.738 88.092 18.484 C 87.496 19.23 86.783 19.877 85.938 20.407 C 85.092 20.938 84.164 21.352 83.136 21.651 C 82.108 21.949 80.981 22.098 79.771 22.098 Z M 80.052 18.501 C 80.633 18.501 81.18 18.418 81.677 18.252 C 82.174 18.086 82.622 17.854 83.02 17.539 C 83.418 17.224 83.749 16.843 84.048 16.396 C 84.346 15.948 84.562 15.451 84.711 14.887 C 84.86 14.323 84.943 13.71 84.943 13.03 C 84.943 12.284 84.794 11.621 84.495 11.041 C 84.197 10.461 83.766 10.013 83.202 9.698 C 82.639 9.366 81.942 9.217 81.147 9.217 C 80.583 9.217 80.052 9.3 79.555 9.466 C 79.058 9.632 78.61 9.864 78.212 10.179 C 77.815 10.494 77.466 10.858 77.185 11.306 C 76.903 11.737 76.687 12.234 76.555 12.798 C 76.405 13.362 76.339 13.959 76.339 14.638 C 76.339 15.384 76.488 16.064 76.77 16.661 C 77.052 17.258 77.483 17.722 78.047 18.037 C 78.61 18.368 79.29 18.518 80.086 18.518 Z" fill="rgb(48,26,18)"/>
    <path d="M 91.126 21.651 L 93.878 6.067 L 98.785 6.067 L 98.056 10.096 L 97.691 9.549 C 98.255 8.637 98.901 7.908 99.614 7.327 C 100.327 6.764 101.123 6.333 102.001 6.034 C 102.863 5.736 103.775 5.587 104.703 5.587 C 105.814 5.587 106.759 5.752 107.522 6.101 C 108.284 6.449 108.897 6.929 109.362 7.576 C 109.809 8.206 110.108 8.952 110.24 9.797 C 110.373 10.643 110.34 11.604 110.157 12.649 L 108.582 21.634 L 103.609 21.634 L 105.118 13.196 C 105.234 12.45 105.217 11.803 105.068 11.24 C 104.919 10.676 104.604 10.245 104.123 9.897 C 103.643 9.565 103.013 9.4 102.233 9.4 C 101.405 9.4 100.659 9.599 99.995 9.98 C 99.332 10.361 98.769 10.875 98.338 11.488 C 97.907 12.118 97.608 12.848 97.443 13.71 L 96.017 21.634 L 91.11 21.634 Z" fill="rgb(48,26,18)"/>

    <!-- Graphic Elements -->
    <path d="M 16.926 13.262 L 22.496 14.44 C 24.22 14.804 25.214 16.379 24.899 18.186 L 23.59 25.563 C 17.556 25.563 13.693 19.844 14.936 12.782 C 16.18 5.719 22.081 0 28.115 0 L 26.806 7.427 C 26.491 9.234 24.933 10.809 23.092 11.174 L 17.075 12.384 C 16.544 12.5 16.428 13.163 16.926 13.262 Z" fill="rgb(242,99,36)"/>
    <path d="M 11.19 12.318 L 5.62 11.14 C 3.896 10.776 2.901 9.201 3.216 7.394 L 4.509 0 C 10.527 0 14.406 5.719 13.162 12.782 C 11.919 19.844 6.034 25.563 0 25.563 L 1.31 18.136 C 1.625 16.329 3.183 14.754 5.023 14.39 L 11.041 13.18 C 11.571 13.064 11.687 12.4 11.19 12.301 Z" fill="rgb(242,99,36)"/>
  </g>
</svg>
