<svg width="124" height="40" viewBox="0 0 124 40" fill="none" xmlns="http://www.w3.org/2000/svg">
<path d="M107.474 11.9971C108.08 11.9972 108.623 12.363 108.834 12.9131L113.562 25.2783L118.357 12.9072C118.57 12.36 119.111 11.9971 119.716 11.9971H124L112.195 39.1416C111.969 39.6616 111.442 39.9997 110.858 40H108.743C107.699 39.9998 106.997 38.9648 107.413 38.0391L110.792 30.5283L102.91 11.9971H107.474ZM20.666 6C21.579 6 22.3191 6.71613 22.3193 7.59961C22.3193 8.48326 21.5791 9.2002 20.666 9.2002H7.85059C5.3417 9.20033 3.30684 11.1692 3.30664 13.5996C3.30664 16.0301 5.34157 17.9999 7.85059 18H16.3262C16.3609 18 16.3955 18.0009 16.4297 18.0029C16.4639 18.0009 16.4985 18 16.5332 18C17.4462 18 18.1863 18.7161 18.1865 19.5996V28.4023C18.1865 32.599 14.6696 36 10.333 36C5.99661 35.9998 2.48052 32.5989 2.48047 28.4023V25.5996C2.48066 24.7161 3.22081 24 4.13379 24C5.04664 24.0001 5.78692 24.7162 5.78711 25.5996V28.4023C5.78716 30.8304 7.82163 32.7996 10.333 32.7998C12.8446 32.7998 14.8798 30.8305 14.8799 28.4023V21.2002H7.85059C3.51422 21.2001 0 17.7963 0 13.5996C0.000203978 9.40307 3.51434 6.00014 7.85059 6H20.666ZM84.6387 5.61426C85.4395 5.61445 86.0898 6.24251 86.0898 7.0166V14.7773C86.7289 13.8623 87.6044 13.1188 88.7168 12.5469C89.8529 11.975 91.1431 11.6885 92.5869 11.6885C94.2674 11.6885 95.7827 12.089 97.1318 12.8896C98.5046 13.6904 99.5822 14.8343 100.363 16.3213C101.168 17.7854 101.57 19.4902 101.57 21.4346C101.57 23.3789 101.168 25.1064 100.363 26.6162C99.5822 28.1032 98.5047 29.2594 97.1318 30.083C95.7827 30.9065 94.2673 31.3183 92.5869 31.3184C91.1195 31.3183 89.8292 31.0431 88.7168 30.4941C87.6282 29.9223 86.7526 29.1899 86.0898 28.2979V29.6074C86.0897 30.3814 85.4394 31.0086 84.6387 31.0088H82.5693C81.7684 31.0088 81.1183 30.3815 81.1182 29.6074V5.61426H84.6387ZM43.7842 4.34473V8.39453C42.5772 8.37167 41.7371 8.56591 41.2637 8.97754C40.7903 9.38933 40.5528 10.1328 40.5527 11.208V11.9971H43.9971V14.542C43.9969 15.316 43.3477 15.9441 42.5469 15.9443H40.5527V29.6074C40.5525 30.3814 39.9033 31.0086 39.1025 31.0088H36.9619C36.161 31.0088 35.5119 30.3815 35.5117 29.6074V15.9443H34.7246C33.9238 15.9442 33.2746 15.316 33.2744 14.542V13.3994C33.2744 12.6253 33.9237 11.9972 34.7246 11.9971H35.5117V11.0361C35.5118 8.70282 36.1975 6.98676 37.5703 5.88867C38.9432 4.79059 41.0148 4.2761 43.7842 4.34473ZM51.2822 11.9971C52.0831 11.9973 52.7334 12.6253 52.7334 13.3994V29.6074C52.7332 30.3814 52.083 31.0086 51.2822 31.0088H49.2129C48.412 31.0088 47.7619 30.3815 47.7617 29.6074V11.9971H51.2822ZM68.5449 11.7227C70.888 11.7228 72.7818 12.4436 74.2256 13.8848C75.6693 15.3032 76.3916 17.2943 76.3916 19.8564V29.6074C76.3914 30.3813 75.742 31.0084 74.9414 31.0088H72.8711C72.0702 31.0088 71.4211 30.3815 71.4209 29.6074V20.5078C71.4209 18.9982 71.0299 17.8427 70.249 17.042C69.468 16.2185 68.4026 15.8068 67.0537 15.8066C65.6809 15.8066 64.5919 16.2185 63.7871 17.042C63.006 17.8427 62.6153 18.998 62.6152 20.5078V29.6074C62.615 30.3812 61.9656 31.0084 61.165 31.0088H59.0947C58.2938 31.0088 57.6447 30.3815 57.6445 29.6074V11.9971H61.165C61.9657 11.9974 62.6152 12.6254 62.6152 13.3994V14.3652C63.278 13.5417 64.118 12.9009 65.1357 12.4434C66.1772 11.963 67.3141 11.7227 68.5449 11.7227ZM10.333 24C11.246 24 11.9862 24.7161 11.9863 25.5996V28.4023C11.9863 29.2859 11.2461 30.002 10.333 30.002C9.42004 30.0019 8.67975 29.2859 8.67969 28.4023V25.5996C8.67986 24.7162 9.42011 24.0001 10.333 24ZM91.2734 15.9092C90.374 15.9092 89.5215 16.1382 88.7168 16.5957C87.9357 17.0303 87.2969 17.6712 86.7998 18.5176C86.3265 19.364 86.0899 20.3592 86.0898 21.5029C86.0899 22.6467 86.3264 23.6428 86.7998 24.4893C87.2968 25.3354 87.9359 25.9879 88.7168 26.4453C89.5215 26.8798 90.3741 27.0967 91.2734 27.0967C92.1964 27.0966 93.0491 26.8686 93.8301 26.4111C94.6348 25.9536 95.2737 25.3005 95.7471 24.4541C96.244 23.6077 96.4931 22.6011 96.4932 21.4346C96.4931 20.2909 96.244 19.3069 95.7471 18.4834C95.2738 17.6371 94.6346 16.9962 93.8301 16.5615C93.0491 16.1269 92.1964 15.9093 91.2734 15.9092ZM20.2559 0C24.5922 1.63193e-05 28.1062 3.403 28.1064 7.59961C28.1064 11.7964 24.5923 15.2002 20.2559 15.2002H7.64746C6.73437 15.2002 5.99414 14.4833 5.99414 13.5996C5.99434 12.7161 6.73449 12 7.64746 12H20.2559C22.765 12 24.7998 10.0302 24.7998 7.59961C24.7996 5.16918 22.7649 3.20021 20.2559 3.2002H10.334C9.42089 3.2002 8.68066 2.48326 8.68066 1.59961C8.68088 0.716134 9.42103 0 10.334 0H20.2559ZM50.2832 4.10449C51.1588 4.10459 51.8812 4.3788 52.4492 4.92773C53.0408 5.45389 53.3369 6.11836 53.3369 6.91895C53.3367 7.71932 53.0407 8.39446 52.4492 8.94336C51.8812 9.46946 51.1588 9.73233 50.2832 9.73242C49.4077 9.73242 48.6737 9.46921 48.082 8.94336C47.5141 8.39444 47.2297 7.71938 47.2295 6.91895C47.2295 6.11821 47.5139 5.45393 48.082 4.92773C48.6737 4.37893 49.4076 4.10449 50.2832 4.10449Z" fill="white"/>
</svg>
