<svg id="Layer_1" data-name="Layer 1" xmlns="http://www.w3.org/2000/svg" viewBox="0 0 2000 733.87" width='200'><defs><style>.cls-1{fill:#FFF;}</style></defs><path class="cls-1" d="M311.65,256.82c.48-3.57,1.11-10.46,1.49-11.16.92-4,1.86-7.91,2.87-11.7,7.59-30.59,18-52,29.22-64.51,1.28-1.44,2.53-2.79,3.73-4.09,26.33-4.63,50.44-8.22,71-11.53,46.55-7.28,75.69-12.32,75.72-18.37S466,123.7,417.74,123.17C369.6,123,302.49,127,229.92,147.44c-72.44,21.24-131.28,54.44-171.45,81.1C18.36,255.54-3,277.12.35,282s30.35-7.16,73.12-26.64c18.92-8.51,41-18.58,65.5-28.9,5.06,13.26,13,30.13,23.74,49.13C183.93,315,205,373.79,218.11,440.49c-16.66,10.87-24.88,22.69-22.64,31.32,2.05,7.54,14.06,9.81,28.84,7.66,8.19,65.16,7.52,126.13,10.07,171.67,2.22,50.94,7.36,82.76,13.38,82.73S259.45,702.75,265.1,652c4.6-47.51,10.65-113.47,1-187.65,16.73-8.41,27.75-16,29.22-25.55.29-5.86-6.05-11.86-17.77-14.13a58.19,58.19,0,0,0-18.51-.29c-15.11-68.68-41.56-127-70.34-165.25-12.8-16.23-23.24-29.82-31.56-40.19,26.16-10.51,54.67-20.92,84.86-29.77,25.79-7.33,51.18-13.12,75.31-17.91-11.62,13-22.47,31.6-30.5,53.1-1.56,4-3.08,8.08-4.53,12.27-2.41,7.43-2.36,9.38-3.66,14.52-2,8.87-3.86,18.34-5.36,28.37-2.89,20.06-4.5,43.06,1.16,67.86,5.28,24.74,20.42,50.17,42,67.55C338.24,433,362.78,442,383.12,453c20.66,10.77,38.89,23.31,47.64,37.24,8.58,13.79,8.12,27.92.8,46.5-14.28,37-35.51,69.63-52.51,96.84-17.36,27.27-31.92,49.59-40.57,66.18-8.92,16.49-11.33,27.55-8.51,28.76,4,1.68,30.93-26.23,74-76.91,20.71-25.91,45.51-57.08,64.75-99.9,4.56-10.14,9.5-24.25,9.93-39.07.77-15-3.54-31.27-11.45-44.43-16.34-26.5-40.81-41.27-63.79-53.66-23.55-12.37-45.41-20.66-60.12-32.65a84,84,0,0,1-30-44.45c-5-17.21-5.32-36-4.17-54,.61-9,1.57-17.94,2.61-26.64"/><path class="cls-1" d="M123.07,120.32a61.23,61.23,0,0,0,15,9.91,89.23,89.23,0,0,0,35,8.05,102.81,102.81,0,0,0,38.57-6c12.68-4.7,28.33-14.08,36.89-29.36,8.75-13.57,12.41-32.57,8.1-48.65-4-16.2-13.79-28.47-24.33-36.86a79.1,79.1,0,0,0-16.82-10c-3.23-1.38-5.11-1.95-9.5-3.4-2.6-.63-5.11-1.13-7.55-1.54A156.68,156.68,0,0,0,171.07,0c-16.81-.12-31.9,3.45-41,10.59-9.4,7.69-8.63,15.67-6.1,16.41,2.89,1.33,7-1.06,13.28-1.11,6.51-.16,16.81,1,30.31,4.63,6.67,1.76,14.1,4,21.76,6.82l5.65,2.2c-.1.29,2.48,1.32,3.52,2.14a44.75,44.75,0,0,1,7.76,6.2c9.57,10.29,12.32,21,5.13,32.47-4.84,9.89-23.14,16.9-38.74,17.89a66.2,66.2,0,0,1-21.19-1.47A36.25,36.25,0,0,1,143.82,94c-.43.41-1.47-.22-3-2.41C135.12,82.67,133.27,71,132.9,65c-.62-6.29,1.33-9.93.32-12.94-.44-2.82-9.43-3.31-16.18,7-6,9.86-9.93,24.54-4.58,44.28a35.91,35.91,0,0,0,10.61,17"/><path class="cls-1" d="M628.77,192.12v134.3h49.29a9,9,0,0,1,9.07,9.06v18.15a9.31,9.31,0,0,1-9.07,9.07H628.77V523.64a9,9,0,0,1-9.07,9.06H601.57a8.93,8.93,0,0,1-9.06-9.06V174c0-9.64,8.48-18.13,18.1-18.13h67.45a9.3,9.3,0,0,1,9.07,9.06v18.13a9,9,0,0,1-9.07,9.07Z"/><path class="cls-1" d="M770.44,523.64a9,9,0,0,1-9.07,9.06H743.24a9,9,0,0,1-9.09-9.06V164.92a9.32,9.32,0,0,1,9.09-9.06h18.13a9.31,9.31,0,0,1,9.07,9.06Z"/><path class="cls-1" d="M917.2,164.91v18.16a9,9,0,0,1-9.07,9h-25.5V523.63a9,9,0,0,1-9.07,9.09H855.43a9,9,0,0,1-9.06-9.09V192.11H820.86a8.93,8.93,0,0,1-9.06-9V164.91a9.3,9.3,0,0,1,9.06-9.06h87.27a9.33,9.33,0,0,1,9.07,9.06"/><path class="cls-1" d="M1030,240.29V221a28.91,28.91,0,1,0-57.81,0v28.9c0,6.8,0,6.8,1.68,9.62l81.61,143.94c10.8,19.29,10.8,19.29,10.8,35.71v28.32a65.18,65.18,0,1,1-130.35,0V448.26A9.3,9.3,0,0,1,945,439.2h18.13a9.31,9.31,0,0,1,9.07,9.06v19.26a28.91,28.91,0,1,0,57.81,0V439.2c0-6.22,0-6.22-1.72-9.07l-81.6-143.94c-10.75-19.26-10.75-19.26-10.75-36.26V221c0-35.71,29.46-65.19,65.16-65.19s65.19,29.48,65.19,65.19v19.26a9,9,0,0,1-9.09,9.06H1039a9,9,0,0,1-9.06-9.06"/><path class="cls-1" d="M1237.93,164.91V523.63a9,9,0,0,1-9.06,9.09h-17.58a9,9,0,0,1-9.06-9.09V362.69h-58.36V523.63a9,9,0,0,1-9.07,9.09h-18.15a9,9,0,0,1-9-9.09V164.91a9.3,9.3,0,0,1,9-9.06h18.15a9.33,9.33,0,0,1,9.07,9.06V326.43h58.36V164.91a9.32,9.32,0,0,1,9.06-9.06h17.58a9.32,9.32,0,0,1,9.06,9.06"/><path class="cls-1" d="M1379.59,221.59a29.19,29.19,0,1,0-58.37,0V325.85h58.37Zm36.28,0v302a9,9,0,0,1-9.07,9.09h-18.12a9,9,0,0,1-9.09-9.09V362.14h-58.37V523.63a9,9,0,0,1-9.06,9.09H1294a9.33,9.33,0,0,1-9.06-9.09v-302a65.79,65.79,0,0,1,65.74-65.74c35.67,0,65.16,29.48,65.16,65.74"/><path class="cls-1" d="M1593.8,297a64.57,64.57,0,0,1-20.39,47,65.9,65.9,0,0,1,20.39,47.61v132a9.3,9.3,0,0,1-9.06,9.06h-18.13a9,9,0,0,1-9.09-9.06v-132a29.27,29.27,0,0,0-29.46-29.48h-28.9V523.64a9,9,0,0,1-9.07,9.06H1472a8.93,8.93,0,0,1-9.07-9.06V164.92a9.3,9.3,0,0,1,9.07-9.06h18.12a9.33,9.33,0,0,1,9.07,9.06V325.86h28.9a29.15,29.15,0,0,0,29.46-28.9v-132a9.33,9.33,0,0,1,9.09-9.06h18.13c4.53,0,9.06,4.53,9.06,9.06Z"/><path class="cls-1" d="M1677.09,192.12v134.3h49.3a9,9,0,0,1,9.07,9.06v18.15a9.31,9.31,0,0,1-9.07,9.07h-49.3V496.42h49.3a9.34,9.34,0,0,1,9.07,9.09v18.13a8.94,8.94,0,0,1-9.07,9.06H1659a17.89,17.89,0,0,1-18.12-18.13V174A18.25,18.25,0,0,1,1659,155.86h67.43a9.31,9.31,0,0,1,9.07,9.06v18.13a9,9,0,0,1-9.07,9.07Z"/><path class="cls-1" d="M1873.72,221.57a29.14,29.14,0,0,0-28.88-29.46h-28.9V325.86h28.9a29,29,0,0,0,28.88-28.9ZM1910,297a64.07,64.07,0,0,1-19.81,47c12.46,11.91,19.81,28.9,19.81,47.61v132a8.94,8.94,0,0,1-9.06,9.06h-18.13a9,9,0,0,1-9.09-9.06v-132c0-16.44-13-29.48-28.88-29.48h-28.9V523.64a9.33,9.33,0,0,1-9.07,9.06h-18.15a8.94,8.94,0,0,1-9.06-9.06V174a18.26,18.26,0,0,1,18.15-18.13h47c36.28,0,65.16,29.46,65.16,65.71Z"/><polygon class="cls-1" points="587.51 681.93 626.34 613.95 589.68 613.95 589.68 604.5 637.48 604.5 637.48 614.29 598.64 681.45 637.96 681.45 637.96 690.9 587.51 690.9 587.51 681.93"/><path class="cls-1" d="M648.36,626H658v7.62h.24c2.8-5.93,9.45-9.3,15.75-9.3,7.61,0,12,2.89,14,10.27,2.91-5.67,8.58-10.27,15.38-10.27,17,0,17,12.82,17,20.56v46H710.31V646.11c0-5-.39-13.06-8.73-13.06-4.82,0-12.07,2.89-12.07,13.06v44.77H679.33V646.11c0-5-.36-13.06-8.72-13.06-4.83,0-12.08,2.89-12.08,13.06v44.77H648.36Z"/><path class="cls-1" d="M766.68,651.67v-3.5c0-7.26-2.2-15.84-11.26-15.84-10.66,0-11.86,13.07-11.86,16.93v2.41Zm-23.48,8c0,10,0,24.93,12.46,24.93,9.69,0,11-10.06,11-15h10.14c0,6.92-4,23-21.76,23-16,0-22.52-10.9-22.52-33.27,0-16.11,3.16-35,23.12-35s21.65,17.19,21.65,31.22v4.12Z"/><path class="cls-1" d="M814.2,617.19h-9.33L792.77,600h9.45l7.38,10.65L817,600h9.42ZM788.43,626h9.69v7.62h.24c2.78-5.93,9.43-9.31,15.72-9.31,17,0,17,12.8,17,20.56v46H821V646.1c0-5-.36-13.05-9.55-13.05-5.45,0-12.82,3.74-12.82,13.05v44.79H788.43Z"/><path class="cls-1" d="M901.3,645c0-8.22-2.17-12.7-9.57-12.7-3.25,0-10.51.84-10.51,9.9,0,7.77,8,9.21,16,11.74,7.74,2.56,15.86,5.36,15.86,18.28,0,13.57-8.84,20.32-20.94,20.32-22,0-22.26-16.32-22.26-23H880c0,7.86,2.05,15,12.08,15,3.27,0,10.77-1.57,10.77-10.75,0-8.73-8.1-10.66-15.84-13.21s-16-5.07-16-18.4c0-12.07,9.45-17.88,20.68-17.88,18.88,0,19.72,13.06,19.72,20.68Z"/><polygon class="cls-1" points="917.26 626.03 928.4 626.03 940.48 678.06 940.72 678.06 952.85 626.03 963.96 626.03 946.43 690.88 934.81 690.88 917.26 626.03"/><path class="cls-1" d="M1004.73,658.46c0-14-1.93-26.13-13-26.13-10.27,0-12.46,12.1-12.46,26.13s2,26.13,12.46,26.13c10.78,0,13-12.1,13-26.13M992,624.35c18.76,0,23.36,15.84,23.36,34.11s-4.72,34.11-23.36,34.11-23.36-15.84-23.36-34.11,4.61-34.11,23.36-34.11"/><path class="cls-1" d="M1036.29,616.1h-10.14V604.48h10.14Zm0,81.07c0,10.66-4.34,16-15.5,16-1.54,0-3.13-.24-4.7-.37v-8.72c1.33.12,2.41.36,3.74.36,6.32,0,6.32-4.73,6.32-10.87V626h10.14Z"/><path class="cls-1" d="M1092.91,690.89h-9.67v-7.64H1083c-2.77,5.93-9.45,9.33-15.74,9.33-17.07,0-17.07-12.83-17.07-20.56V626h10.18v44.77c0,4.94.36,13.07,9.57,13.07,5.44,0,12.82-3.76,12.82-13.07V626h10.15Z"/><path class="cls-1" d="M1168.16,658.46c0-14-1.93-26.13-13-26.13-10.27,0-12.46,12.1-12.46,26.13s2,26.13,12.46,26.13c10.75,0,13-12.1,13-26.13m-12.71-34.11c18.76,0,23.34,15.84,23.34,34.11s-4.7,34.11-23.34,34.11-23.33-15.84-23.33-34.11,4.58-34.11,23.33-34.11"/><path class="cls-1" d="M1211.58,683.88c9.31,0,11.86-10.53,11.86-25.43,0-15.48-2.55-25.39-11.86-25.39-11,0-13.06,12.83-13.06,25.39,0,13.18,2,25.43,13.06,25.43M1189,604.5h10.17v28.92h.24c2.29-5.71,8.34-9.08,15-9.08,17.55,0,19.72,20.56,19.72,34.11,0,18.27-6.18,34.13-21.17,34.13-7,0-12.7-4.84-14-9.69h-.27v8H1189Z"/><path class="cls-1" d="M1268.07,600h11.87l-13.09,17.17h-7.26Zm-28.56,26h11.16l12.8,52h.24l11.38-52h11.14l-18.76,69.21c-2.55,9-5.08,16.93-17.31,16.93-4,0-5.57-.24-7.37-.34v-8a37.85,37.85,0,0,0,5.93.36c4.7,0,6.65-2.77,8-6.29l1.92-5.69Z"/><polygon class="cls-1" points="1288.63 626.03 1299.77 626.03 1311.87 678.06 1312.11 678.06 1324.19 626.03 1335.32 626.03 1317.8 690.88 1306.18 690.88 1288.63 626.03"/><path class="cls-1" d="M1372.94,655.54c-4,4-12.68,4.6-17.28,7.64-3.28,2.05-5,4.58-5,10.27,0,6.68,2.29,11.14,9.19,11.14s13.06-5.57,13.06-12.35Zm-31.34-9.91c0-14.63,6.3-21.29,21.8-21.29,19.72,0,19.72,11.86,19.72,18.64v36.16c0,2.8-.12,5.21,3.13,5.21a3.65,3.65,0,0,0,2.43-.61V691a39,39,0,0,1-5.93.6c-3.76,0-8.82,0-9.2-8.34h-.25a18.18,18.18,0,0,1-15.59,9.33c-12.1,0-17.67-7.26-17.67-18.9,0-9.18,3.88-15.36,12.22-17.89l13.67-4.12c7.49-2.29,7.37-4.48,7.37-9.79,0-6.17-3.61-9.57-10.39-9.57-11.13,0-11.13,10.27-11.13,12.71v.6Z"/><path class="cls-1" d="M1421.45,617.19h-9.31L1400.06,600h9.41l7.4,10.64,7.37-10.64h9.43Zm6.29,28.57c0-6.3-2.53-13.43-10.27-13.43-6.29,0-12.73,3.16-12.73,26.85,0,8.34.14,25.41,12.34,25.41,8.73,0,10.66-9.18,10.66-16.2h10.17c0,10.15-5.09,24.18-21.31,24.18-16,0-22.49-10.87-22.49-33.24,0-16.11,3.16-35,23.12-35,17.76,0,20.68,14,20.68,21.41Z"/><polygon class="cls-1" points="1496.82 690.89 1484.96 690.89 1466.95 658.83 1458.59 668.98 1458.59 690.89 1448.44 690.89 1448.44 604.49 1458.59 604.49 1458.59 655.91 1458.83 655.91 1481.58 626.04 1493.44 626.04 1473.72 650.49 1496.82 690.89"/><path class="cls-1" d="M1544.85,690.89h-9.69v-7.64h-.24c-2.77,5.93-9.43,9.33-15.72,9.33-17,0-17-12.83-17-20.56V626h10.15v44.77c0,4.94.36,13.07,9.54,13.07,5.45,0,12.83-3.76,12.83-13.07V626h10.17Z"/><path class="cls-1" d="M1587.17,626h9.67v7.62h.26c2.77-5.93,9.43-9.3,15.72-9.3,17.07,0,17.07,12.82,17.07,20.56v46h-10.17V646.11c0-5-.37-13.06-9.58-13.06-5.42,0-12.8,3.74-12.8,13.06v44.77h-10.17Z"/><path class="cls-1" d="M1672.93,655.54c-4,4-12.68,4.6-17.28,7.64-3.28,2.05-5,4.58-5,10.27,0,6.68,2.29,11.14,9.21,11.14s13-5.57,13-12.35Zm-31.34-9.91c0-14.63,6.32-21.29,21.8-21.29,19.72,0,19.72,11.86,19.72,18.64v36.16c0,2.8-.12,5.21,3.13,5.21a3.75,3.75,0,0,0,2.44-.61V691a39.31,39.31,0,0,1-5.93.6c-3.77,0-8.85,0-9.21-8.34h-.22a18.26,18.26,0,0,1-15.62,9.33c-12.1,0-17.67-7.26-17.67-18.9,0-9.18,3.88-15.36,12.22-17.89l13.67-4.12c7.5-2.29,7.4-4.48,7.4-9.79,0-6.17-3.64-9.57-10.41-9.57-11.14,0-11.14,10.27-11.14,12.71v.6Z"/><path class="cls-1" d="M1757.87,626H1768v64.85h-10.15Zm0-21.55H1768V616.1h-10.15ZM1728.94,634h-9.42v-8h9.42v-7.61c0-9.79,4.22-14.9,14-14.9h7.38v8.72h-4.72c-4.37,0-6.51,1.69-6.51,6.18V626h11.11v8h-11.11v56.87h-10.18Z"/><path class="cls-1" d="M1784.94,607.16h10.18V626h11.25v8h-11.25v41.63c0,5.21,1.32,7.26,6.65,7.26a30.3,30.3,0,0,0,4.48-.36v8.34a35,35,0,0,1-8.24.72c-10.66,0-13.07-4.34-13.07-12.82V634h-9.42v-8h9.42Z"/><polygon class="cls-1" points="1861.65 690.89 1849.79 690.89 1831.75 658.83 1823.41 668.98 1823.41 690.89 1813.26 690.89 1813.26 604.49 1823.41 604.49 1823.41 655.91 1823.65 655.91 1846.41 626.04 1858.27 626.04 1838.53 650.49 1861.65 690.89"/><path class="cls-1" d="M1899.85,658.46c0-14-1.92-26.13-12.92-26.13-10.29,0-12.46,12.1-12.46,26.13s2,26.13,12.46,26.13c10.75,0,12.92-12.1,12.92-26.13m-12.68-34.11c18.76,0,23.34,15.84,23.34,34.11s-4.7,34.11-23.34,34.11-23.36-15.84-23.36-34.11,4.61-34.11,23.36-34.11"/><path class="cls-1" d="M1939.26,127.78h17.48c8.53,0,13.84,5,13.84,13.55,0,5.74-2,12.18-8.32,13.62v.15c4.75.53,7.33,4.38,7.64,9l.46,9.23c.22,6,1.28,7.5,2.87,8.49h-8c-1.23-1.21-1.62-5.16-1.84-7.79l-.45-8.39c-.61-7.42-4.61-7.88-8-7.88h-9v24.06h-6.66Zm6.66,24.52h6.58c3.93,0,11.11.07,11.11-10.44,0-5.37-3.47-8.63-9.74-8.63h-7.95Z"/><path class="cls-1" d="M1956.25,198.55A43.76,43.76,0,1,1,2000,154.79a43.8,43.8,0,0,1-43.75,43.76m0-80.57a36.81,36.81,0,1,0,36.81,36.81A36.86,36.86,0,0,0,1956.25,118"/></svg>