<svg xmlns="http://www.w3.org/2000/svg" xmlns:xlink="http://www.w3.org/1999/xlink" width="120" height="46.829" viewBox="0 0 120 46.829"><defs><clipPath id="a"><path d="M0,0H120V46.829H0Z" fill="none"/></clipPath></defs><path d="M0,0H120V46.829H0Z" fill="none"/><g clip-path="url(#a)"><path d="M120.129,7.953l-.027-.332c-.106-1.321-.217-2.687-.412-4.055-.032-.232-.076-.46-.125-.7l-.05-.265a24.586,24.586,0,0,0-.6-2.6c-1.126.345-2.414.73-2.708.819-.153.047-.3.1-.456.145s-.273.091-.407.13c-.251.071-.5.138-.756.205s-.516.137-.772.211c-.37.1-.739.211-1.109.316-.577.167-1.155.335-1.734.49-.961.258-1.928.493-2.9.728-.665.162-1.334.32-2.008.459-.721.147-1.449.271-2.173.393-.987.167-1.971.322-2.957.478-.364.057-.727.111-1.093.155-.254.03-.509.054-.766.08-.437.044-.876.088-1.315.15-1.156.162-2.346.272-3.533.326-2.408.111-4.808.185-7.666.263-1.364.038-2.727.057-4.089.075l-2.765.043c-1.028.019-2.055.038-3.084.038h-.248c-2.073-.007-4.148-.04-6.22-.073l-.347-.006c-2.209-.034-4.418-.07-6.626-.127-1.522-.04-3.044-.093-4.564-.145l-2.937-.1q-2.648-.088-5.3-.181c-.442-.016-.884-.037-1.327-.06-.746-.036-1.49-.071-2.239-.085-2.117-.036-4.235-.047-6.354-.05h-.634c-.8,0-1.725.007-2.673.077-.531.038-1.063.063-1.6.088-.965.044-1.964.09-2.986.218-.482.06-.967.107-1.45.157-.416.04-.835.083-1.252.13-.283.033-.564.077-.846.12s-.542.085-.816.111a36.519,36.519,0,0,0-5.063.809c-.835.2-1.721.447-2.709.769-.756.245-1.456.534-2.133.816a24.682,24.682,0,0,0-7.067,4.574,22.318,22.318,0,0,0-4.7,6.326c-.4.795-.723,1.592-1.051,2.406a17.2,17.2,0,0,0-.592,1.76c-.1.343-.178.691-.258,1.038-.053.239-.108.477-.172.713a21.541,21.541,0,0,0-.536,3.148,34.2,34.2,0,0,0-.1,6.741c.079,1,.2,1.986.314,2.943l.06.487c.043.369.108.736.175,1.1l.075.434c-.364.03-.729.064-1.093.09l-.627.041a5.044,5.044,0,0,0-.891.1L0,42.252l2.1,1.505.11.013c.165.02.33.04.5.048q2.6.132,5.2.262.491.023.982.024c1.063,0,2.1-.077,3.151-.162.534-.043,1.04-.128,1.486-.206.178-.03.733-.118.733-.118s.757-.093.891-.107a2.129,2.129,0,0,0,.123.2A2.645,2.645,0,0,0,17.5,44.831l.186,0c.076,0,.151-.01.2-.017,1.291-.138,2.638-.352,4.007-.635.373-.077.744-.154,1.119-.222.409-.074.818-.141,1.229-.2.5-.077.993-.15,1.487-.214a1.4,1.4,0,0,1,.186-.013,1.913,1.913,0,0,1,.582.1,5.07,5.07,0,0,0,.12.642,3,3,0,0,0,3.015,2.283c.069,0,.138,0,.217,0a3,3,0,0,0,.528-.081l.552-.063,1.786-.229.812-.238a4.038,4.038,0,0,1,.465-.1c.254-.044.508-.091.76-.155.427-.111.865-.191,1.3-.272l.915-.175c.179-.033.357-.067.534-.105l.526-.117c.225-.053.45-.1.677-.148.277-.053.552-.1.829-.147.478-.083.955-.165,1.427-.269a22.267,22.267,0,0,1,2.321-.332l.281-.031c.03,0,.06,0,.092,0a1.607,1.607,0,0,1,.271.027,5.223,5.223,0,0,1,.965.3c.536.212,1.069.436,1.6.659l1.077.449a14.128,14.128,0,0,0,2.233.77,6.984,6.984,0,0,0,1.582.189,6.16,6.16,0,0,0,1.592-.209c.3-.08.594-.154.895-.205.475-.081.954-.15,1.431-.219l.513-.074c.055-.009.11-.019.161-.023l.478-.023c.416-.02.83-.041,1.261-.041h0c1,0,2,.017,3,.051.489.014.977.051,1.464.087l.911.067c.2.016.392.033.587.04l.555.024c1.117.048,2.232.1,3.348.132.772.026,1.545.041,2.315.041,1.386,0,2.669-.047,3.923-.141l.435-.028c.353-.021.706-.044,1.058-.085.7-.084,1.4-.187,2.173-.3.28-.041.556-.093.835-.145,0,0,1.8-.323,2.371-.427a2.5,2.5,0,0,0,.789-.289l.354-.681c.661,0,1.32-.02,1.958-.058.7-.044,1.44-.115,2.183-.209.459-.058.914-.145,1.368-.234l.34-.064c.264-.05.526-.107.792-.165l.951-.2c.624-.134,1.251-.266,1.873-.412.767-.181,1.674-.382,2.583-.511a12.054,12.054,0,0,1,1.651-.121,3.32,3.32,0,0,0,1.863-.578c.032-.021.06-.043.093-.063a1.017,1.017,0,0,1,.191-.016,2.756,2.756,0,0,1,.356.027,14.112,14.112,0,0,1,1.39.282c.241.057.482.114.723.167.377.083.752.171,1.126.259.413.1.826.194,1.241.283a17.891,17.891,0,0,0,2.922.413l1.664.091.212.009a2.548,2.548,0,0,0,2.128-1.116L108.28,39.1c-.131-.053-.247-.1-.359-.128-.174-.053-.349-.128-.522-.194a22.142,22.142,0,0,0,3.151-2.213,23.7,23.7,0,0,0,4.593-5.307,27.156,27.156,0,0,0,2.161-4.141,34.61,34.61,0,0,0,1.3-3.645c.191-.661.37-1.361.581-2.27.175-.749.357-1.549.493-2.368a30.214,30.214,0,0,0,.432-3.547c0-.1.022-.2.034-.295a7.116,7.116,0,0,0,.072-.869l.011-.924c.022-1.7.043-3.46-.1-5.246" transform="translate(0.524 -0.64)" fill="#fefefe"/></g><path d="M67.527,38.754a1.235,1.235,0,0,1-.307-.034c-.7-.176-1.454-.375-2.367-.626-.293-.081-.59-.17-.876-.256-.212-.064-.43-.129-.647-.191-.288-.083-.582-.166-.866-.247l-.011,0-.729-.207c-.267-.076-.54-.156-.8-.233l-.006,0-.582-.17-.47-.134q-.514-.147-1.029-.3l-.783-.229-.018-.005c-.287-.084-.585-.172-.882-.257l-.712-.2q-.38-.108-.76-.218c-.37-.107-.746-.217-1.109-.324h0c-.353-.1-.7-.206-1.052-.308-.254-.074-.514-.147-.765-.218h0c-.257-.072-.522-.147-.783-.224-.3-.087-.6-.178-.9-.265l-.466-.139-.388-.114-.072-.021c-.348-.1-.708-.207-1.062-.312l-.608-.184-.937-.282-.729-.217-.011,0-.01,0-.666-.2-.714-.217c-.269-.082-.536-.164-.8-.244-.2-.061-.41-.122-.611-.18h0c-.27-.079-.55-.16-.825-.246-.6-.188-1.218-.386-1.831-.589a16.843,16.843,0,0,0-3.05-.759l-.394-.053a15.49,15.49,0,0,0-2.094-.191c-.2,0-.386.008-.567.023-.255.021-.5.053-.8.094l-.3.043c-.408.058-.829.118-1.241.195a8.9,8.9,0,0,0-1.545.469c-.41.156-.832.3-1.24.436h0l-.385.131c-.222.076-.448.151-.667.223s-.437.144-.654.218c-.345.118-.695.24-1.033.358l-.017.006-.764.266c-.511.175-1.017.346-1.5.508l-.874.284-.008,0-.866.281-.469.153-.006,0h0c-.294.1-.6.2-.9.291l-.015,0c-.458.141-.931.286-1.4.408A2.12,2.12,0,0,1,20,34.59h-.059c-1.268,0-2.555-.011-3.8-.018l-1.277-.007H14.83c-.079,0-.157,0-.217,0s-.147,0-.219,0-.14,0-.2-.007c-.08-.006-.162-.009-.243-.009a4.827,4.827,0,0,0-1.861.451c-.673.281-1.345.544-2,.784-.7.257-1.308.464-1.871.633-.682.2-1.381.39-2.056.568l-.306.081c-.386.1-.8.2-1.218.29-.459.1-.928.193-1.38.285h0l-.58.117-.318.064-.026.005c-.343.069-.7.141-1.047.216a.693.693,0,0,1-.14.018c-.115,0-.165-.057-.2-.225-.067-.368-.129-.741-.189-1.1L.75,36.689.7,36.416c-.024-.144-.049-.287-.075-.431-.056-.318-.115-.646-.154-.971L.421,34.56v-.005c-.114-.948-.232-1.928-.309-2.9A32.383,32.383,0,0,1,.2,25.335l0-.018A19.884,19.884,0,0,1,.671,22.5c.072-.268.135-.543.2-.808.07-.3.141-.619.227-.924a14.86,14.86,0,0,1,.51-1.534c.309-.773.616-1.527.973-2.249a20.033,20.033,0,0,1,4.2-5.7,21.034,21.034,0,0,1,3.763-2.822,20.712,20.712,0,0,1,2.579-1.318c.628-.263,1.278-.536,1.95-.755.916-.3,1.739-.535,2.515-.722a33.855,33.855,0,0,1,4.73-.759c.316-.03.634-.079.942-.127.252-.039.512-.08.77-.109.409-.048.825-.089,1.227-.13.489-.049.994-.1,1.489-.161.927-.117,1.873-.161,2.787-.2.546-.026,1.111-.052,1.666-.094.825-.061,1.662-.069,2.442-.069h.681c1.722,0,4,.011,6.3.051.71.012,1.431.047,2.128.081.453.022.922.045,1.385.062,1.385.052,2.793.1,4.155.145L50.6,4.44l2,.069c1.42.05,2.884.1,4.327.138,2.278.059,4.594.1,6.637.128h0c2.156.035,4.386.071,6.578.077h.3c1.011,0,2.038-.019,3.031-.037l1.3-.022,1.44-.021h0C77.59,4.754,79,4.734,80.388,4.7c2.314-.064,5.008-.142,7.695-.267,1.263-.058,2.523-.175,3.747-.348.4-.057.816-.1,1.214-.139.267-.027.541-.055.81-.087.346-.04.723-.094,1.188-.168l.292-.047c.878-.141,1.785-.286,2.678-.439.726-.124,1.5-.257,2.248-.41s1.477-.33,2.093-.481l.078-.019c.941-.231,1.914-.469,2.866-.726.605-.163,1.218-.342,1.811-.515l.012,0c.341-.1.694-.2,1.041-.3.253-.073.512-.142.763-.209s.514-.137.768-.21c.167-.048.333-.1.494-.157.135-.045.271-.09.406-.131a.826.826,0,0,1,.174-.027c.037,0,.075-.006.117-.012.018.1.037.195.055.287.039.2.077.391.1.585.184,1.3.29,2.637.393,3.925l.028.349c.137,1.7.115,3.425.094,5.095v.015q-.006.443-.01.885a4.874,4.874,0,0,1-.053.584c-.021.163-.043.331-.051.5a28.289,28.289,0,0,1-.4,3.293c-.126.751-.291,1.487-.464,2.238-.138.6-.325,1.388-.549,2.159a32.058,32.058,0,0,1-1.207,3.414,25.233,25.233,0,0,1-1.971,3.808,21.08,21.08,0,0,1-4.125,4.812,19.919,19.919,0,0,1-4.742,3c-.111.05-.224.1-.333.146-.159.069-.323.14-.482.216a.43.43,0,0,1-.191.05.435.435,0,0,1-.268-.107c-.538-.408-1.116-.844-1.7-1.266l-.413-.3a20.589,20.589,0,0,0-1.883-1.278,1.776,1.776,0,0,0-.915-.248,2.3,2.3,0,0,0-.454.048,2.882,2.882,0,0,0-.378.1.855.855,0,0,1-.271.046.96.96,0,0,1-.589-.228c-.057-.044-.115-.091-.17-.137a2.826,2.826,0,0,0-.431-.311,1.105,1.105,0,0,0-.525-.145.929.929,0,0,0-.529.17l-.054.036c-.12.08-.243.164-.355.256-.449.374-.912.759-1.365,1.15A18.039,18.039,0,0,1,82.7,35.755a16.085,16.085,0,0,1-2.306.909c-.376.115-.765.211-1.141.3h0l-.417.1c-.413.1-.756.188-1.081.263-.237.053-.5.1-.794.157l-.627.11-1.789.314c-.042.007-.085.013-.126.017l-.065.008-1.006.147c-.819.12-1.666.244-2.5.351-.412.052-.833.084-1.24.115-.248.019-.5.038-.758.062-.185.017-.372.04-.553.062s-.388.048-.583.065C67.647,38.751,67.585,38.754,67.527,38.754ZM42.669,13.585a6.925,6.925,0,0,0-2.689.569,6.731,6.731,0,0,0-3.043,2.49,7.055,7.055,0,0,0-1.127,3.541,1.956,1.956,0,0,0,.016.474l.036.226c.067.422.137.858.242,1.278a6.2,6.2,0,0,0,1.425,2.589,6.816,6.816,0,0,0,1.382,1.165,7.1,7.1,0,0,0,1.951.873,6.153,6.153,0,0,0,1.569.225c.148.006.294.008.435.008a8.12,8.12,0,0,0,2.027-.235,5.319,5.319,0,0,0,1.725-.762,2.882,2.882,0,0,0,1.343-2.759c-.013-.135-.049-.192-.12-.192a.316.316,0,0,0-.132.041,6.931,6.931,0,0,1-1.692.533c-.3.059-.6.105-.893.149-.177.027-.36.054-.539.084a5.167,5.167,0,0,1-.874.075,5.653,5.653,0,0,1-1.87-.332,2.545,2.545,0,0,1-1.418-1.233.331.331,0,0,1-.03-.254c.016-.04.13-.054.223-.054.252,0,.5,0,.692,0h.616a.133.133,0,0,1,0-.014.111.111,0,0,0,0-.012l.66-.039c.432-.025.877-.05,1.315-.082.168-.012.338-.021.5-.03a7.143,7.143,0,0,0,1.679-.224,4.623,4.623,0,0,0,1.669-.8,2.424,2.424,0,0,0,.91-1.525,4.5,4.5,0,0,0-.142-2.039A4.39,4.39,0,0,0,47,15.1a6.52,6.52,0,0,0-1.856-1.054,7.419,7.419,0,0,0-2.171-.454C42.87,13.587,42.769,13.585,42.669,13.585Zm14.161,0a7.207,7.207,0,0,0-2.82.614,6.564,6.564,0,0,0-2.167,1.494,6.319,6.319,0,0,0-1.65,2.925,8.79,8.79,0,0,0-.219,1.347,4.9,4.9,0,0,0,.02.8c.007.087.014.173.019.259a1.711,1.711,0,0,0,.032.217,1.891,1.891,0,0,1,.031.2,4.548,4.548,0,0,0,.406,1.471,6.593,6.593,0,0,0,2.63,3.06,7.761,7.761,0,0,0,1.457.685,5.569,5.569,0,0,0,1.27.307,9.705,9.705,0,0,0,1.083.066,6.878,6.878,0,0,0,.7-.034,4.034,4.034,0,0,0,1.463-.423,3.445,3.445,0,0,0,1.872-2.736,1.966,1.966,0,0,0-.216-1.017l-.133.067c-.091.046-.169.086-.249.118s-.14.057-.207.085a3.305,3.305,0,0,1-.549.194,7.634,7.634,0,0,1-1.664.185c-.147,0-.3,0-.442-.013a3.372,3.372,0,0,1-1.681-.53A2.978,2.978,0,0,1,54.474,20.9a2.859,2.859,0,0,1,.189-1.746,3.216,3.216,0,0,1,2.16-1.864,4.022,4.022,0,0,1,1.077-.155,3.4,3.4,0,0,1,.743.082,2.136,2.136,0,0,0,.276.038l.11.011a2.924,2.924,0,0,1,1.31.441.319.319,0,0,0,.158.068c.062,0,.1-.058.155-.166a2.221,2.221,0,0,0,.1-1.474,3.046,3.046,0,0,0-1.305-1.849,4.032,4.032,0,0,0-1.984-.673A6.211,6.211,0,0,0,56.83,13.583Zm12.3,0a7.59,7.59,0,0,0-2.953.593,6.686,6.686,0,0,0-3.02,2.516,6.481,6.481,0,0,0-1.021,2.745,7.009,7.009,0,0,0,.1,2.387,5.9,5.9,0,0,0,.8,1.924,6.793,6.793,0,0,0,5.289,3.239c.267.024.53.037.783.037a6.81,6.81,0,0,0,6.756-5.555,6.407,6.407,0,0,0-.71-4.312,6.646,6.646,0,0,0-3.573-3.085A7.9,7.9,0,0,0,69.129,13.579ZM20.117,17.06c.065,0,.132,0,.2.008a1.727,1.727,0,0,1,1.469.959,1.68,1.68,0,0,1,.136.814c0,.029,0,.057,0,.085,0,1.644,0,3.292,0,4.886q0,1.018,0,2.035,0,.087,0,.173v.017c0,.148,0,.3,0,.454s0,.232.039.274.112.049.26.051c.236,0,.475,0,.706,0,.28,0,.571,0,.856.007h.1a3.237,3.237,0,0,0,1.1-.184,1.94,1.94,0,0,0,1.237-1.235,3.728,3.728,0,0,0,.2-1.261c-.008-1.437-.006-2.9,0-4.312v-.264c0-.426,0-.784.021-1.145a.993.993,0,0,1,.106-.4,1.752,1.752,0,0,1,1.576-.971l.1,0A1.614,1.614,0,0,1,29.989,18.8c0,.026,0,.053,0,.079,0,2.2,0,4.561,0,7.647,0,.258.027.285.288.288.6.007,1.2.007,1.787.007a2.412,2.412,0,0,0,1.1-.279,1.888,1.888,0,0,0,1.049-1.636c.02-.256.019-.518.018-.771q0-.089,0-.177,0-1.027,0-2.053c0-1.046,0-2.127,0-3.193a5.192,5.192,0,0,0-.547-2.255,4.789,4.789,0,0,0-2.168-2.211,6.232,6.232,0,0,0-2.018-.606,6.007,6.007,0,0,0-.858-.062,6.185,6.185,0,0,0-2.132.389,4.719,4.719,0,0,0-2.17,1.646c-.067.089-.12.144-.175.144s-.112-.054-.186-.14a5.709,5.709,0,0,0-3.8-2,4.989,4.989,0,0,0-.549-.03,7.128,7.128,0,0,0-1.362.146A5.125,5.125,0,0,0,15.7,15.022a4.926,4.926,0,0,0-1.4,2.335,4.341,4.341,0,0,0-.186,1.18c0,.9,0,1.806,0,2.686v.01q0,.578,0,1.155h-.024v.828c0,1.074,0,2.184,0,3.275,0,.307,0,.325.327.328h.566c.289,0,.589,0,.884.007h.079a2.994,2.994,0,0,0,1.069-.187,1.768,1.768,0,0,0,.99-.813,2.837,2.837,0,0,0,.339-1.392c0-1.115,0-2.237,0-3.321q0-.635,0-1.268v-.032q0-.634,0-1.268a1.268,1.268,0,0,1,.3-.82A1.79,1.79,0,0,1,20.117,17.06Zm63.2-3.474a6.536,6.536,0,0,0-1.918.307,5.125,5.125,0,0,0-2.06,1.183,4.61,4.61,0,0,0-1.281,2.093,6.848,6.848,0,0,0-.309,1.974c.01,1.454.01,3.012,0,5.051a3.988,3.988,0,0,0,.169,1.236A1.788,1.788,0,0,0,78.963,26.6a2.727,2.727,0,0,0,1.07.233h.07c.138,0,.286-.006.465-.006l.367,0,.367,0c.146,0,.3,0,.448-.006.217-.008.252-.046.248-.271v-.1c0-.232-.007-.472-.007-.709q0-2.929,0-5.86c0-.122,0-.247,0-.368,0-.257-.007-.52.009-.777a1.625,1.625,0,0,1,.83-1.428,1.96,1.96,0,0,1,.965-.253,2.211,2.211,0,0,1,.439.045,1.617,1.617,0,0,1,1.141.731,1.807,1.807,0,0,1,.265.952q0,.67,0,1.34v.012c0,1.314,0,2.672,0,4.007a5.289,5.289,0,0,0,.059.89,1.965,1.965,0,0,0,.821,1.344,2.5,2.5,0,0,0,1.387.448c.167,0,.347,0,.551,0l.655,0h.014l.482,0c.1,0,.2,0,.308,0a.166.166,0,0,0,.176-.175c0-.036,0-.072,0-.109,0-.022,0-.04,0-.059V18.913c0-.029,0-.058,0-.087a1.928,1.928,0,0,1,.009-.277,1.583,1.583,0,0,1,.842-1.27,1.909,1.909,0,0,1,.917-.23,2.294,2.294,0,0,1,.494.056,1.578,1.578,0,0,1,1.328,1.483c.008.136.009.274.009.391q0,.8,0,1.607c0,1.21,0,2.462.006,3.7a5.132,5.132,0,0,0,.1.967,1.76,1.76,0,0,0,1.017,1.318,2.56,2.56,0,0,0,1.081.258h.025c.374,0,.751,0,1.115,0h.558a1.1,1.1,0,0,0,.167-.009c.169-.026.207-.071.2-.238,0-.106-.006-.212-.01-.316-.005-.135-.011-.274-.011-.41V24.312c0-1.431,0-3.053,0-4.606,0-.389-.016-.776-.033-1.171a5.18,5.18,0,0,0-.577-2.165,5,5,0,0,0-2.981-2.488,6.258,6.258,0,0,0-1.922-.3h-.011a5.578,5.578,0,0,0-2.112.4,5.692,5.692,0,0,0-2.269,1.667.838.838,0,0,1-.1.1l-.049.044-.047-.028a.245.245,0,0,1-.052-.035c-.036-.038-.073-.081-.109-.127a5.174,5.174,0,0,0-4.308-2.013h-.059Z" transform="translate(6.067 3.043)" fill="#dd0d15"/><path d="M0,6.594a4.874,4.874,0,0,1,.678-.062c.824-.059,1.65-.11,2.473-.2.8-.086,1.6-.2,2.4-.321.558-.083,1.115-.2,1.672-.3.467-.085.933-.166,1.4-.258C9,5.388,9.37,5.3,9.742,5.219c.308-.069.615-.138.922-.215.71-.182,1.42-.365,2.128-.556.673-.179,1.345-.358,2.011-.56.614-.186,1.215-.4,1.825-.6.583-.188,1.164-.388,1.756-.54a2.625,2.625,0,0,1,.855-.037c.75.067,1.5.195,2.246.241.9.054,1.8.047,2.7.072a7.392,7.392,0,0,0,2.29-.437c.711-.211,1.424-.42,2.136-.633s1.4-.428,2.1-.64c.5-.149,1-.292,1.5-.441.435-.132.869-.269,1.3-.4S34.4.188,34.849.061A1.827,1.827,0,0,1,35.29,0c.291-.009.391.133.246.38-.192.328-.417.636-.628.953-.049.073-.1.142-.185.261a2.2,2.2,0,0,0,.262.03,7.4,7.4,0,0,0,1.546-.193c.279-.072.56-.142.832-.232a1.186,1.186,0,0,1,.995.11c.349.195.68.418,1.019.63.22.138.432.289.664.407a2.118,2.118,0,0,0,.548.186.49.49,0,0,0,.638-.387c.08-.248.133-.5.21-.752A2.982,2.982,0,0,1,41.67.77a1.678,1.678,0,0,1,.4-.417.553.553,0,0,1,.53-.06,12.88,12.88,0,0,1,1.642.69,3.847,3.847,0,0,0,.7.261c.414.092.654-.093.723-.517.023-.138.026-.278.046-.417.04-.261.132-.321.378-.256.907.239,1.816.47,2.721.715.724.2,1.446.411,2.169.617.643.185,1.285.365,1.927.553.553.162,1.1.334,1.653.5q.681.2,1.363.4l.855.252c.721.211,1.444.418,2.166.632.5.148.993.3,1.493.45.283.085.571.162.856.242.52.148,1.036.3,1.554.438.6.166,1.2.328,1.8.49.52.14,1.039.285,1.562.417.584.148,1.171.287,1.758.427.372.087.741.178,1.115.256.744.158,1.49.308,2.234.46.394.08.783.16,1.178.231,1.1.2,2.2.382,3.308.484.435.04.867.1,1.3.143.157.014.316,0,.474.006a3.01,3.01,0,0,1,.316.047c0,.019,0,.037.007.057a.591.591,0,0,1-.152.073c-.684.127-1.371.252-2.057.375-.356.064-.711.136-1.069.191-.7.1-1.4.209-2.1.292-.461.057-.926.072-1.39.106a54.194,54.194,0,0,1-5.967.1c-1.291-.043-2.581-.1-3.873-.156-.269-.011-.538-.043-.806-.06-.724-.049-1.446-.113-2.17-.138Q56.781,8.6,55.245,8.6c-.613,0-1.227.04-1.839.066a4.044,4.044,0,0,0-.415.047c-.661.1-1.324.191-1.984.3-.374.066-.746.155-1.114.255a4.018,4.018,0,0,1-2.011,0,12.746,12.746,0,0,1-1.967-.7c-.866-.36-1.726-.735-2.6-1.083a7.134,7.134,0,0,0-1.436-.437,3.577,3.577,0,0,0-1.026-.043,27.124,27.124,0,0,0-2.841.405c-.724.16-1.461.265-2.191.407-.419.08-.833.188-1.251.276-.253.056-.51.1-.764.15-.693.139-1.391.251-2.074.425a8.675,8.675,0,0,0-1.646.41.22.22,0,0,1-.08.026q-.9.118-1.795.232c-.22.029-.442.049-.663.079-.083.01-.163.046-.245.05-.412.021-.706-.1-.81-.51a2.563,2.563,0,0,1-.076-.467,1.889,1.889,0,0,0-1.374-1.774,4.251,4.251,0,0,0-2.025-.258c-.515.067-1.031.143-1.544.223-.429.066-.862.138-1.291.216-.392.072-.783.152-1.174.234-1.247.261-2.5.467-3.77.6a.811.811,0,0,1-.083.007c-.326.019-.437-.135-.316-.448.077-.2.166-.393.25-.589.127-.3.006-.506-.318-.5a8.4,8.4,0,0,0-.889.064c-.767.086-1.533.182-2.3.274-.092.011-.183.027-.275.042-.615.1-1.227.226-1.845.278a29.534,29.534,0,0,1-3.817.133Q3.058,6.862.468,6.728C.312,6.721.157,6.695,0,6.678c0-.027,0-.056,0-.083" transform="translate(2.356 35.832)" fill="#397b23"/><path d="M0,6.061c.087-.016.173-.039.262-.046.352-.026.706-.042,1.056-.07.787-.063,1.576-.119,2.36-.2.656-.072,1.308-.178,1.958-.281q1.211-.193,2.419-.411c.4-.073.8-.163,1.2-.264.55-.136,1.1-.276,1.64-.433q.777-.221,1.543-.481c.518-.176,1.036-.354,1.54-.566A16.23,16.23,0,0,0,18.155.868c.271-.226.518-.478.779-.719.22-.206.315-.2.494.036.11.148.2.314.313.461a.571.571,0,0,0,.8.239.659.659,0,0,1,.741.143,3.174,3.174,0,0,0,.538.4.7.7,0,0,0,.857-.029c.067-.05.14-.093.208-.142a.47.47,0,0,1,.527-.037c.69.364,1.388.713,2.06,1.11,1.063.626,2.1,1.308,3.169,1.925a12.122,12.122,0,0,0,2.546,1.117c.079.023.153.057.249.095-.077.113-.173.093-.258.089-.557-.029-1.114-.063-1.672-.092A15.764,15.764,0,0,1,26.97,5.1c-.789-.172-1.57-.372-2.359-.546-.77-.168-1.529-.385-2.316-.487a3.644,3.644,0,0,0-1.653.109,2.6,2.6,0,0,0-.608.332.927.927,0,0,1-.542.173,14.457,14.457,0,0,0-1.974.146c-.938.135-1.861.335-2.784.553-.859.2-1.722.38-2.584.567-.306.067-.614.139-.925.2-.521.1-1.041.211-1.564.278q-1.009.131-2.024.195a32.832,32.832,0,0,1-3.847.006c-.344-.019-.687-.043-1.028-.08-.794-.089-1.587-.183-2.38-.278A.6.6,0,0,1,0,6.136a.632.632,0,0,0,0-.074" transform="translate(75.834 36.097)" fill="#397b23"/><path d="M2.471,6.444A2.321,2.321,0,0,1,.235,4.725,5.05,5.05,0,0,1,.124,2.083,2.5,2.5,0,0,1,1.317.311a2.266,2.266,0,0,1,2.937.56,3.264,3.264,0,0,1,.61,1.476,5.015,5.015,0,0,1-.039,1.965A2.421,2.421,0,0,1,3.31,6.268a6.053,6.053,0,0,1-.839.176" transform="translate(72.614 20.139)" fill="#dd0d15"/><path d="M1.644,2.134c-.454,0-.909,0-1.364,0-.252,0-.322-.06-.256-.3A2.888,2.888,0,0,1,.332,1.1a2.13,2.13,0,0,1,1.2-.956A2.132,2.132,0,0,1,4.138.932.654.654,0,0,1,3.72,2a5.437,5.437,0,0,1-1.52.133H1.644" transform="translate(46.4 19.909)" fill="#dd0d15"/></svg>