<svg xmlns="http://www.w3.org/2000/svg" xmlns:xlink="http://www.w3.org/1999/xlink" width="198.354" height="60.102" viewBox="0 0 198.354 60.102">
  <defs>
    <clipPath id="clip-path">
      <rect id="Rectangle_6" data-name="Rectangle 6" width="198.354" height="60.102" fill="#fff"/>
    </clipPath>
  </defs>
  <g id="Group_6" data-name="Group 6" transform="translate(0 0)">
    <g id="Group_5" data-name="Group 5" transform="translate(0 0)" clip-path="url(#clip-path)">
      <path id="Path_15" data-name="Path 15" d="M65.1,13.278V38.97l1.916-1.105a3.219,3.219,0,0,0,1.605-2.781V11.6a3.221,3.221,0,0,0-1.607-2.782L52.491.429a3.219,3.219,0,0,0-3.213,0L47.364,1.534,63.8,11.026a2.608,2.608,0,0,1,1.3,2.253" transform="translate(-15.712 0)" fill="#fff"/>
      <path id="Path_16" data-name="Path 16" d="M27.736,4.318l22.25,12.846V14.952a3.218,3.218,0,0,0-1.605-2.78L28.041.429a3.222,3.222,0,0,0-3.213,0L10.3,8.816A3.225,3.225,0,0,0,8.695,11.6v2.209L25.134,4.318a2.611,2.611,0,0,1,2.6,0" transform="translate(-2.884 0)" fill="#fff"/>
      <path id="Path_17" data-name="Path 17" d="M25.155,10.469a3.221,3.221,0,0,0-3.21,0L1.606,22.212A3.22,3.22,0,0,0,0,24.994V41.769a3.219,3.219,0,0,0,1.607,2.782l1.913,1.105V26.674a2.61,2.61,0,0,1,1.3-2.253l22.25-12.846Z" transform="translate(0 -3.331)" fill="#fff"/>
      <path id="Path_18" data-name="Path 18" d="M12.216,57.313V31.621L10.3,32.726a3.219,3.219,0,0,0-1.606,2.78V58.993A3.223,3.223,0,0,0,10.3,61.775l14.527,8.387a3.222,3.222,0,0,0,3.213,0l1.914-1.105L13.517,59.566a2.608,2.608,0,0,1-1.3-2.253" transform="translate(-2.884 -10.49)" fill="#fff"/>
      <path id="Path_19" data-name="Path 19" d="M39.64,77.1,17.39,64.252v2.212A3.219,3.219,0,0,0,19,69.244L39.335,80.986a3.218,3.218,0,0,0,3.213,0L57.075,72.6a3.224,3.224,0,0,0,1.607-2.783V67.607L42.242,77.1a2.611,2.611,0,0,1-2.6,0" transform="translate(-5.769 -21.314)" fill="#fff"/>
      <path id="Path_20" data-name="Path 20" d="M72.828,27.705,70.915,26.6V45.582a2.608,2.608,0,0,1-1.3,2.253L47.364,60.682l1.915,1.105a3.216,3.216,0,0,0,3.21,0L72.828,50.044a3.221,3.221,0,0,0,1.607-2.782V30.487a3.22,3.22,0,0,0-1.607-2.782" transform="translate(-15.712 -8.824)" fill="#fff"/>
      <path id="Path_21" data-name="Path 21" d="M114.372,28.339a32.547,32.547,0,0,1,3.822-.8,31.465,31.465,0,0,1,4.914-.37,11.972,11.972,0,0,1,4.349.682,6.535,6.535,0,0,1,2.749,1.931,7.529,7.529,0,0,1,1.443,2.964,15.81,15.81,0,0,1,.429,3.822V48.153h-5.811V37.272a7.833,7.833,0,0,0-.742-3.978,3.023,3.023,0,0,0-2.769-1.171q-.625,0-1.327.059t-1.248.136V48.153h-5.811Z" transform="translate(-37.941 -9.013)" fill="#fff"/>
      <path id="Path_22" data-name="Path 22" d="M159.571,17.295a3.188,3.188,0,0,1-1.033,2.516,3.7,3.7,0,0,1-4.875,0,3.184,3.184,0,0,1-1.034-2.516,3.184,3.184,0,0,1,1.034-2.515,3.7,3.7,0,0,1,4.875,0,3.188,3.188,0,0,1,1.033,2.515m-.546,26.445h-5.811V23.224h5.811Z" transform="translate(-50.632 -4.599)" fill="#fff"/>
      <path id="Path_23" data-name="Path 23" d="M192.653,42.883q-.78.234-1.794.449t-2.125.37q-1.113.156-2.263.254t-2.2.1a12.9,12.9,0,0,1-4.524-.741,9.082,9.082,0,0,1-3.355-2.125,9.214,9.214,0,0,1-2.086-3.355,12.783,12.783,0,0,1-.722-4.427,15.151,15.151,0,0,1,.624-4.5A9.8,9.8,0,0,1,176,25.488a7.683,7.683,0,0,1,2.867-2.145,9.6,9.6,0,0,1,3.881-.741,9.115,9.115,0,0,1,2.165.234,11.7,11.7,0,0,1,1.931.663V19.163a5.808,5.808,0,0,1,4.885-5.734l.926-.149Zm-13.144-9.751a7.118,7.118,0,0,0,1.21,4.33,4.174,4.174,0,0,0,3.589,1.638q.779,0,1.443-.059t1.092-.136V28.335a5.088,5.088,0,0,0-1.423-.585,6.876,6.876,0,0,0-1.775-.234q-4.134,0-4.135,5.617" transform="translate(-57.582 -4.405)" fill="#fff"/>
      <path id="Path_24" data-name="Path 24" d="M232.587,47.684a32.166,32.166,0,0,1-3.823.8,31.464,31.464,0,0,1-4.914.371,11.667,11.667,0,0,1-4.348-.7,6.6,6.6,0,0,1-2.75-1.969,7.67,7.67,0,0,1-1.443-3.023,16.22,16.22,0,0,1-.429-3.861V27.871h5.811V38.6a8.308,8.308,0,0,0,.742,4.057A2.946,2.946,0,0,0,224.2,43.9q.623,0,1.327-.058c.467-.039.883-.084,1.248-.137V27.871h5.811Z" transform="translate(-71.282 -9.246)" fill="#fff"/>
      <path id="Path_25" data-name="Path 25" d="M265.658,37.272a8.011,8.011,0,0,0-.722-3.978,2.677,2.677,0,0,0-2.477-1.171,11.255,11.255,0,0,0-1.131.059q-.584.058-1.131.136V48.153h-5.811V28.339q.741-.2,1.735-.41c.664-.142,1.365-.273,2.106-.39s1.5-.207,2.282-.273,1.546-.1,2.3-.1a9.69,9.69,0,0,1,3.608.565,8.188,8.188,0,0,1,2.282,1.346,10.857,10.857,0,0,1,5.851-1.911,10.248,10.248,0,0,1,4.036.682,6.079,6.079,0,0,1,2.515,1.931,7.3,7.3,0,0,1,1.287,2.964,19.1,19.1,0,0,1,.352,3.823V48.153h-5.812V37.272a8,8,0,0,0-.722-3.978,2.677,2.677,0,0,0-2.477-1.171,5.226,5.226,0,0,0-1.306.235,5.1,5.1,0,0,0-1.384.585,8.969,8.969,0,0,1,.351,1.892q.077.994.078,2.126V48.153h-5.811Z" transform="translate(-84.387 -9.013)" fill="#fff"/>
    </g>
  </g>
</svg>
