<svg xmlns="http://www.w3.org/2000/svg" viewBox="0 0 354.33 85.22">
    <path fill="#FFFFFF" d="M92.12 49.61c-11.72 0-21.26-9.54-21.26-21.26 0-11.72 9.54-21.26 21.26-21.26s21.26 9.54 21.26 21.26c0 11.72-9.53 21.26-21.26 21.26M92.13 0C76.5 0 63.78 12.72 63.78 28.35S76.5 56.7 92.13 56.7s28.35-12.72 28.35-28.35C120.47 12.72 107.76 0 92.13 0M28.35 0C12.72 0 0 12.72 0 28.35h.01V56.7h7.08V28.35c0-11.72 9.54-21.26 21.26-21.26s21.26 9.54 21.26 21.26V56.7h7.08V28.35h.01C56.69 12.72 43.98 0 28.35 0M212.6 56.7c15.63 0 28.35-12.72 28.35-28.35h-.01V0h-7.08v28.35c0 11.72-9.54 21.26-21.26 21.26-11.72 0-21.26-9.54-21.26-21.26V0h-7.08v28.35h-.01c0 15.63 12.72 28.35 28.35 28.35M325.98 0c-10.66 0-19.96 5.92-24.8 14.64C296.34 5.92 287.04 0 276.38 0c-15.63 0-28.35 12.72-28.35 28.35h.01V56.7h7.08V28.35c0-11.72 9.54-21.26 21.26-21.26 11.72 0 21.26 9.54 21.26 21.26V56.7h7.09V28.35c0-11.72 9.54-21.26 21.26-21.26 11.72 0 21.26 9.54 21.26 21.26V56.7h7.08V28.35h.01C354.33 12.72 341.61 0 325.98 0M198.43 21.26h28.35v-7.09h-28.35v7.09zm0 14.18h28.35v-7.09h-28.35v7.09zm7.08-31.9c0-1.96-1.59-3.54-3.54-3.54-1.96 0-3.54 1.59-3.54 3.54 0 1.96 1.59 3.54 3.54 3.54 1.96.01 3.54-1.58 3.54-3.54m10.63 0c0-1.96-1.59-3.54-3.54-3.54-1.96 0-3.54 1.59-3.54 3.54 0 1.96 1.59 3.54 3.54 3.54 1.96.01 3.54-1.58 3.54-3.54m10.63 0c0-1.96-1.59-3.54-3.54-3.54-1.96 0-3.54 1.59-3.54 3.54 0 1.96 1.59 3.54 3.54 3.54 1.96.01 3.54-1.58 3.54-3.54M169.25 0l-20.42 40.96L128.41 0h-7.92l28.34 56.84L177.17 0h-7.92zM56.86 75.35v5.92l-4.91-5.92H49.6v9.7h2.35v-5.93l4.91 5.93h2.35v-9.7h-2.35zM73.42 78l1.51 3.62h-3.05L73.42 78zm-1.32-2.65-4.15 9.7h2.48l.64-1.51h4.68l.63 1.51h2.5l-4.16-9.7H72.1zm-1.21-2.58.7 1.41 4.55-1.41-.74-1.87-4.51 1.87zm22.92 2.58-3.71 4.26v-4.26h-2.34v9.7h2.34v-2.18l1.67-1.83 2.65 4.01h3.04l-4.05-5.79 3.34-3.91h-2.94zm20.67 0h-2.37v4.72c0 1.87-.91 2.98-2.37 2.98-1.48 0-2.28-1.11-2.28-2.98v-4.72h-2.34v4.72c0 3.21 1.87 5.15 4.62 5.15 2.71 0 4.73-1.94 4.73-5.15v-4.72zm11.22 2.17v3.18h1.85c.94 0 1.58-.56 1.58-1.61 0-1.04-.64-1.55-1.58-1.57h-1.85zm5.81 1.57c0 1.91-1.21 3.76-3.69 3.76h-2.11v2.2h-2.35v-9.7h4.48c2.47 0 3.67 1.85 3.67 3.74m16.17-3.74v5.92l-4.91-5.92h-2.35v9.7h2.35v-5.93l4.91 5.93h2.35v-9.7h-2.35zm11.66 0v9.7h7.43v-2.17h-5.09v-1.67h4.25v-2.03h-4.25v-1.67h5.09v-2.17h-7.43zm1.3-2.61.7 1.41 4.55-1.41-.74-1.87-4.51 1.87zm33.27 8.81c-.47.86-1.35 1.47-2.55 1.47-1.7 0-2.88-1.35-2.88-2.9 0-1.6 1.18-2.84 2.88-2.84 1.23 0 2.12.58 2.58 1.47l1.98-1.16c-.87-1.45-2.5-2.42-4.56-2.42-3.04 0-5.25 2.25-5.25 4.95 0 2.87 2.21 5.09 5.25 5.09 2.05 0 3.67-1.07 4.53-2.52l-1.98-1.14zm10.81-6.2v9.7h7.43v-2.17h-5.09v-1.67h4.25v-2.03h-4.25v-1.67h5.09v-2.17h-7.43zm23.71 0v5.92l-4.91-5.92h-2.35v9.7h2.35v-5.93l4.91 5.93h2.35v-9.7h-2.35zm11.08 0v2.17h3.44v7.53h2.37v-7.53h3.44v-2.17h-9.25zm20.44 2.17v2.95h2.01c.8 0 1.44-.67 1.44-1.48 0-.8-.64-1.47-1.43-1.47h-2.02zm5.81 1.47c0 1.4-.68 2.58-1.72 3.14l2 2.92h-2.91l-1.45-2.41h-1.71v2.41h-2.34v-9.7h4.69c1.95 0 3.44 1.53 3.44 3.64m18.07-3.64h-2.37v4.72c0 1.87-.91 2.98-2.37 2.98-1.48 0-2.28-1.11-2.28-2.98v-4.72h-2.34v4.72c0 3.21 1.87 5.15 4.62 5.15 2.71 0 4.73-1.94 4.73-5.15v-4.72zm18.29 0-3.36 7.12-3.38-7.12h-2.6v9.7h2.34V80.1l2.32 4.95h2.61l2.32-4.95v4.95h2.35v-9.7h-2.6z"/>
</svg>