<svg xmlns="http://www.w3.org/2000/svg" xmlns:xlink="http://www.w3.org/1999/xlink" version="1.1" style="" xml:space="preserve" width="108" height="50"><rect id="backgroundrect" width="100%" height="100%" x="0" y="0" fill="none" stroke="none" class="" style=""/>
<style type="text/css">
	.st0{fill-rule:evenodd;clip-rule:evenodd;fill:#80C41C;}
	.st1{fill:#636466;}
</style>

<g class="currentLayer" style=""><title>Layer 1</title><g id="svg_1" class="">
	<polygon class="st0" points="36.900001525878906,19.899999618530273 36.20000076293945,17.999998092651367 0.8000011444091797,17.999998092651367 0,21.100000381469727 102.79999923706055,21.100000381469727 103.20000076293945,19.899999618530273 " id="svg_2"/>
	<path class="st1" d="M88.10000076293946,-3.8146972514141453e-7 l-1.2,4.7 h2.6 l-0.8,3.4 h-2.6 l-1.1,4.3 c-0.1,0.5 -0.2,0.9 -0.1,1 c0.1,0.30000000000000004 0.30000000000000004,0.4 0.7000000000000001,0.4 c0.30000000000000004,0 0.9,-0.1 1.5,-0.30000000000000004 l-0.5,3.2 c-1.2,0.2 -2.3,0.4 -3.3,0.4 c-1.2,0 -2,-0.1 -2.5,-0.4 c-0.5,-0.30000000000000004 -0.8,-0.8 -0.9,-1.4 c-0.1,-0.6000000000000001 0,-1.6 0.30000000000000004,-3 l1.1,-4.3 H79.70000076293945 l0.8,-3.4 h1.7000000000000002 l0.6000000000000001,-2.2 L88.10000076293946,-3.8146972514141453e-7 z" id="svg_3"/>
	<path class="st1" d="M75.70000076293945,16.799999618530272 h-4.4 l0.5,-2 c-0.8,0.8 -1.6,1.4 -2.4,1.7000000000000002 c-0.7000000000000001,0.30000000000000004 -1.6,0.5 -2.6,0.5 c-1.3,0 -2.2,-0.4 -2.7,-1.2 c-0.5,-0.8 -0.6000000000000001,-2 -0.2,-3.5 l1.9,-7.7 l4.7,0 l-1.7000000000000002,6.7 c-0.2,0.8 -0.2,1.3 0,1.6 c0.2,0.30000000000000004 0.6000000000000001,0.5 1.1,0.5 c0.6000000000000001,0 1.1,-0.2 1.5,-0.6000000000000001 c0.5,-0.4 0.8,-1.2 1.1,-2.3 l1.4,-5.9 l4.7,0 L75.70000076293945,16.799999618530272 z" id="svg_4"/>
	<polygon class="st1" points="21.900001525878906,0 27.10000228881836,0 25.5,6.299999237060547 32.5,0 39.400001525878906,0 31.700000762939453,6.299999237060547 35.5,16.80000114440918 29.10000228881836,16.80000114440918 27.299999237060547,9.899999618530273 23.900001525878906,12.69999885559082 22.900001525878906,16.80000114440918 17.700000762939453,16.80000114440918 " id="svg_5"/>
	<path class="st1" d="M17.900000762939456,1.299999618530272 c-0.7000000000000001,-0.9 -2,-1.3 -3.9,-1.3 l-8.6,0 l-4.2,16.8 h5.2 l1.5,-6.3 l2.8,0 c2.1,0 3.8,-0.5 5,-1.4 c1.3,-1 2.1,-2.3 2.5,-4 C18.800000762939455,3.499999618530275 18.60000076293945,2.199999618530274 17.900000762939456,1.299999618530272 zM13.300000762939455,5.299999618530272 c-0.1,0.5 -0.4,1 -0.9,1.3 c-0.5,0.30000000000000004 -1.2,0.5 -2.2,0.5 h-1.3 L9.700000762939453,3.3999996185302734 h1.5 c1,0 1.6,0.2 1.8,0.6000000000000001 C13.300000762939455,4.299999618530272 13.400000762939456,4.699999618530274 13.300000762939455,5.299999618530272 z" id="svg_6"/>
	<path class="st1" d="M59.900000762939456,-3.8146972514141453e-7 h-5.6 L43.80000076293945,16.799999618530272 h5.3 l1.5,-2.8 l5.9,0 l0.1,2.8 l5.4,0 L59.900000762939456,-3.8146972514141453e-7 zM52.60000076293946,10.399999618530273 l3.3,-6 l0.4,6 H52.60000076293946 z" id="svg_7"/>
	<path class="st1" d="M103.00000076293945,6.499999618530275 c-0.9,-1.4 -2.6,-2.1 -5,-2.1 c-2.1,0 -4,0.6000000000000001 -5.5,1.8 c-1.5,1.2 -2.6,2.7 -3,4.6 c-0.5,2 -0.2,3.6 1,4.8 c1,1 2.4,1.5 4.4,1.5 c2.2,0 4.1,-0.6000000000000001 5.6,-1.8 c1.5,-1.2 2.5,-2.7 3,-4.6 C103.80000076293945,8.999999618530275 103.70000076293945,7.599999618530273 103.00000076293945,6.499999618530275 zM98.70000076293945,10.69999961853027 c-0.30000000000000004,1.1 -0.7000000000000001,2 -1.3,2.5 c-0.6000000000000001,0.5 -1.2,0.8 -1.8,0.8 c-0.7000000000000001,0 -1.2,-0.30000000000000004 -1.5,-0.8 c-0.30000000000000004,-0.5 -0.30000000000000004,-1.3 -0.1,-2.4 c0.30000000000000004,-1.1 0.7000000000000001,-1.9 1.3,-2.4 c0.6000000000000001,-0.5 1.2,-0.8 1.9,-0.8 c0.6000000000000001,0 1.1,0.30000000000000004 1.4,0.8 C99.00000076293945,8.799999618530272 99.00000076293945,9.599999618530273 98.70000076293945,10.69999961853027 z" id="svg_8"/>
	<g id="svg_9">
		<path class="st1" d="M107.80000076293945,2.3999996185302734 c0,1.4 -1.1,2.4 -2.5,2.4 c-1.4,0 -2.5,-1.1 -2.5,-2.4 c0,-1.4 1.1,-2.4 2.5,-2.4 C106.70000076293945,-3.8146972514141453e-7 107.80000076293945,0.9999996185302749 107.80000076293945,2.3999996185302734 zM103.50000076293945,2.3999996185302734 c0,1.1 0.8,1.9 1.9,1.9 c1,0 1.8,-0.9 1.8,-1.9 c0,-1.1 -0.8,-1.9 -1.9,-1.9 C104.30000076293945,0.39999961853027344 103.50000076293945,1.299999618530272 103.50000076293945,2.3999996185302734 zM104.90000076293946,3.5999996185302727 h-0.6000000000000001 v-2.4 c0.2,0 0.5,-0.1 0.9,-0.1 c0.5,0 0.7000000000000001,0.1 0.8,0.2 c0.1,0.1 0.30000000000000004,0.30000000000000004 0.30000000000000004,0.5 c0,0.30000000000000004 -0.2,0.5 -0.5,0.6000000000000001 v0 c0.2,0.1 0.4,0.30000000000000004 0.4,0.6000000000000001 c0.1,0.4 0.1,0.5 0.2,0.6000000000000001 h-0.6000000000000001 c-0.1,-0.1 -0.1,-0.30000000000000004 -0.2,-0.6000000000000001 c0,-0.2 -0.2,-0.4 -0.5,-0.4 h-0.30000000000000004 V3.5999996185302727 zM105.00000076293945,2.299999618530272 h0.30000000000000004 c0.30000000000000004,0 0.6000000000000001,-0.1 0.6000000000000001,-0.4 c0,-0.2 -0.2,-0.4 -0.5,-0.4 c-0.1,0 -0.2,0 -0.30000000000000004,0 V2.299999618530272 z" id="svg_10"/>
	</g>
</g></g></svg>